<svg width="82" height="82" viewBox="0 0 82 82" fill="none" xmlns="http://www.w3.org/2000/svg">
<path d="M25.625 17.9375C25.625 20.9784 26.5267 23.951 28.2162 26.4794C29.9056 29.0078 32.3068 30.9784 35.1162 32.1421C37.9257 33.3058 41.0171 33.6103 43.9995 33.0171C46.982 32.4238 49.7215 30.9595 51.8718 28.8093C54.022 26.659 55.4863 23.9195 56.0796 20.937C56.6728 17.9546 56.3683 14.8632 55.2046 12.0537C54.041 9.24433 52.0703 6.84308 49.5419 5.15365C47.0135 3.46423 44.0409 2.5625 41 2.5625C36.9237 2.56715 33.0157 4.1885 30.1334 7.07086C27.251 9.95323 25.6296 13.8612 25.625 17.9375ZM41 7.6875C43.0273 7.6875 45.009 8.28865 46.6946 9.41494C48.3802 10.5412 49.694 12.1421 50.4698 14.015C51.2456 15.8879 51.4485 17.9489 51.0531 19.9372C50.6576 21.9255 49.6813 23.7519 48.2478 25.1853C46.8144 26.6188 44.988 27.5951 42.9997 27.9906C41.0114 28.386 38.9504 28.1831 37.0775 27.4073C35.2046 26.6315 33.6037 25.3177 32.4774 23.6321C31.3512 21.9465 30.75 19.9648 30.75 17.9375C30.7531 15.22 31.834 12.6147 33.7556 10.6931C35.6772 8.77153 38.2825 7.69062 41 7.6875Z" fill="#222222" fill-opacity="0.5"/>
<path d="M71.7501 41.1025V34.5938C71.7501 34.1733 71.6466 33.7592 71.4488 33.3881C71.251 33.0169 70.9649 32.7002 70.6157 32.4659C70.2665 32.2315 69.865 32.0867 69.4466 32.0441C69.0282 32.0016 68.6058 32.0627 68.2166 32.2221L53.6744 38.1716C49.8606 35.8321 45.4737 34.5938 40.9995 34.5938C36.5253 34.5938 32.1383 35.8321 28.3245 38.1716L13.7823 32.2221C13.3932 32.063 12.9709 32.0021 12.5527 32.0447C12.1344 32.0873 11.7331 32.2322 11.3841 32.4665C11.0351 32.7009 10.7491 33.0175 10.5513 33.3885C10.3535 33.7595 10.2501 34.1734 10.2501 34.5938V41.1025C8.11649 41.4083 6.16473 42.4732 4.7529 44.1018C3.34106 45.7304 2.56384 47.8134 2.56384 49.9688C2.56384 52.1242 3.34106 54.2072 4.7529 55.8358C6.16473 57.4644 8.11649 58.5293 10.2501 58.835V65.3438C10.2501 65.8523 10.4015 66.3494 10.6849 66.7716C10.9683 67.1938 11.371 67.5222 11.8416 67.7149L40.0016 79.2356C40.6441 79.4837 41.356 79.4837 41.9985 79.2356L70.1585 67.7149C70.6291 67.5222 71.0318 67.1938 71.3152 66.7716C71.5986 66.3494 71.75 65.8523 71.7501 65.3438V58.835C73.8836 58.5293 75.8354 57.4644 77.2472 55.8358C78.659 54.2072 79.4363 52.1242 79.4363 49.9688C79.4363 47.8134 78.659 45.7304 77.2472 44.1018C75.8354 42.4732 73.8836 41.4083 71.7501 41.1025ZM47.309 40.7763L41.0001 43.3575L34.691 40.7763C38.7812 39.3805 43.2188 39.3806 47.309 40.7763ZM7.68755 49.9688C7.68853 49.1741 7.93533 48.3991 8.3941 47.7501C8.85287 47.1012 9.50115 46.61 10.2501 46.344V53.5936C9.50115 53.3276 8.85287 52.8364 8.3941 52.1875C7.93533 51.5385 7.68853 50.7635 7.68755 49.9688ZM15.3751 56.375V38.4119L27.5854 43.4066C27.5961 43.4111 27.6043 43.4194 27.6151 43.4238L38.4376 47.8461V73.0579L15.3751 63.6246V56.375ZM66.6251 63.6246L43.5626 73.0579V47.8461L54.385 43.4237C54.3958 43.4193 54.404 43.4108 54.4147 43.4065L66.6251 38.4119V63.6246ZM71.7501 53.5936V46.344C72.4995 46.6092 73.1483 47.1002 73.6071 47.7493C74.066 48.3984 74.3124 49.1738 74.3124 49.9688C74.3124 50.7637 74.066 51.5392 73.6071 52.1883C73.1483 52.8374 72.4995 53.3284 71.7501 53.5936Z" fill="#222222" fill-opacity="0.5"/>
</svg>
