<svg width="82" height="82" viewBox="0 0 82 82" fill="none" xmlns="http://www.w3.org/2000/svg">
<path d="M35.8362 32.8832C43.7928 32.8832 50.2428 26.5631 50.2428 18.7669C50.2428 10.9707 43.7928 4.65057 35.8362 4.65057C27.8797 4.65057 21.4297 10.9707 21.4297 18.7669C21.4297 26.5631 27.8797 32.8832 35.8362 32.8832Z" fill="#222222" fill-opacity="0.5"/>
<path d="M75.3319 9.45015C71.5197 9.28429 68.2802 12.2905 68.1403 16.1183C67.7904 25.3857 65.6187 31.7999 61.8583 34.6688C60.8994 35.4022 59.8835 35.835 58.9195 36.1071C56.3668 33.9794 53.1144 32.8417 50.8545 32.8417H35.8389H20.8233C15.267 32.8417 10.7603 38.6831 10.7603 44.8174V63.4871H60.3785V51.4777C60.7439 50.9102 61.0783 50.3478 61.3504 49.8061C64.0793 49.2127 67.0752 48.0439 69.9544 45.9136C77.4078 40.4169 81.4558 30.5637 81.9923 16.6314C82.14 12.8114 79.1571 9.59528 75.3319 9.45015Z" fill="#222222" fill-opacity="0.5"/>
<path d="M80.4425 69.1419H0V77.3494H80.4425V69.1419Z" fill="#222222" fill-opacity="0.5"/>
</svg>
