<svg width="82" height="82" viewBox="0 0 82 82" fill="none" xmlns="http://www.w3.org/2000/svg">
<g clip-path="url(#clip0_591_2)">
<path d="M25.625 17.9375C25.625 20.9784 26.5267 23.951 28.2162 26.4794C29.9056 29.0078 32.3068 30.9785 35.1162 32.1421C37.9257 33.3058 41.0171 33.6103 43.9995 33.0171C46.982 32.4238 49.7215 30.9595 51.8718 28.8093C54.022 26.659 55.4863 23.9195 56.0796 20.937C56.6728 17.9546 56.3683 14.8632 55.2046 12.0537C54.0409 9.24433 52.0703 6.84308 49.5419 5.15365C47.0135 3.46423 44.0409 2.5625 41 2.5625C36.9237 2.56715 33.0157 4.1885 30.1334 7.07086C27.251 9.95323 25.6296 13.8612 25.625 17.9375Z" fill="#878787"/>
<path d="M29.0284 17.9044C29.0284 20.2722 29.7306 22.5868 31.046 24.5555C32.3615 26.5242 34.2312 28.0586 36.4187 28.9647C38.6062 29.8708 41.0133 30.1079 43.3356 29.646C45.6578 29.1841 47.7909 28.0439 49.4652 26.3696C51.1395 24.6954 52.2796 22.5622 52.7416 20.24C53.2035 17.9177 52.9664 15.5106 52.0603 13.3231C51.1542 11.1356 49.6198 9.26589 47.6511 7.95044C45.6824 6.63498 43.3678 5.93286 41 5.93286C37.8261 5.93648 34.7832 7.19893 32.5388 9.44325C30.2945 11.6876 29.0321 14.7305 29.0284 17.9044Z" fill="#EEEEEE"/>
<path d="M71.75 41.1025V34.5938C71.7501 34.1733 71.6466 33.7592 71.4488 33.3881C71.251 33.0169 70.9648 32.7002 70.6157 32.4659C70.2665 32.2315 69.865 32.0867 69.4466 32.0441C69.0282 32.0016 68.6058 32.0627 68.2166 32.2221L53.6744 38.1716C49.2636 36.6034 45.4743 35.544 41 35.544C36.5258 35.544 33.2662 36.5504 28.3245 38.1716L13.7823 32.2221C13.3932 32.063 12.9709 32.0021 12.5527 32.0447C12.1344 32.0873 11.7331 32.2322 11.3841 32.4666C11.0351 32.7009 10.7491 33.0175 10.5513 33.3885C10.3535 33.7595 10.2501 34.1734 10.25 34.5938V41.1025C8.11649 41.4083 6.16473 42.4732 4.7529 44.1018C3.34106 45.7304 2.56384 47.8134 2.56384 49.9688C2.56384 52.1242 3.34106 54.2072 4.7529 55.8358C6.16473 57.4644 8.11649 58.5293 10.25 58.835V65.3438C10.2501 65.8523 10.4015 66.3494 10.6849 66.7716C10.9683 67.1938 11.371 67.5222 11.8416 67.7149L40.0016 79.2356C40.6441 79.4837 41.356 79.4837 41.9985 79.2356L70.1585 67.7149C70.6291 67.5222 71.0317 67.1938 71.3152 66.7716C71.5986 66.3494 71.75 65.8523 71.75 65.3438V58.835C73.8836 58.5293 75.8354 57.4644 77.2472 55.8358C78.659 54.2072 79.4363 52.1242 79.4363 49.9688C79.4363 47.8134 78.659 45.7304 77.2472 44.1018C75.8354 42.4732 73.8836 41.4083 71.75 41.1025ZM49.7403 40.1249L41 43.3575L32.2597 40.1249C35.0672 38.8282 38.8681 38.6693 41 38.6693C43.132 38.6693 47.3037 38.9342 49.7403 40.1249ZM7.68755 49.9688C7.68853 49.1741 7.93533 48.3991 8.3941 47.7501C8.85287 47.1012 9.50115 46.61 10.25 46.344V53.5936C9.50115 53.3276 8.85287 52.8364 8.3941 52.1875C7.93533 51.5385 7.68853 50.7635 7.68755 49.9688ZM38.4375 47.8461L27.5854 43.4066C27.5961 43.4111 27.6043 43.4194 27.6151 43.4238L38.4375 47.8461ZM43.5625 47.8461L54.385 43.4237C54.3958 43.4193 54.404 43.4108 54.4147 43.4065L66.625 38.4119L43.5625 47.8461ZM71.75 55.8358V44.1018C72.4995 44.367 74.0543 44.4962 75.2727 45.9794C76.9677 46.958 77.2472 48.2572 77.2472 49.9688C77.2472 51.6804 77.2472 52.5333 75.8553 53.9251C74.4635 55.317 72.4995 55.5706 71.75 55.8358Z" fill="#878787"/>
<path d="M13.4548 35.9147V64.8748L39.5168 75.5374V46.1912L13.4548 35.9147Z" fill="#EEEEEE" stroke="#EEEEEE"/>
<path d="M68.863 35.9147V64.8748L42.801 75.5374V46.1912L68.863 35.9147Z" fill="#EEEEEE" stroke="#EEEEEE"/>
<g clip-path="url(#clip1_591_2)">
<path d="M62.8688 50.0582C62.8688 51.8095 63.3881 53.5215 64.3611 54.9776C65.334 56.4338 66.717 57.5687 68.3349 58.2389C69.9529 58.9091 71.7333 59.0845 73.451 58.7428C75.1686 58.4011 76.7464 57.5578 77.9847 56.3195C79.2231 55.0811 80.0664 53.5033 80.4081 51.7857C80.7497 50.068 80.5744 48.2877 79.9042 46.6697C79.234 45.0517 78.0991 43.6688 76.6429 42.6958C75.1868 41.7228 73.4748 41.2035 71.7235 41.2035C69.3759 41.2062 67.1252 42.1399 65.4652 43.7999C63.8052 45.4599 62.8715 47.7106 62.8688 50.0582Z" fill="#878787"/>
<path d="M65.4729 50.0581C65.4729 51.2839 65.8395 52.4822 66.5263 53.5014C67.2132 54.5206 68.1894 55.315 69.3315 55.7841C70.4737 56.2531 71.7305 56.3759 72.943 56.1367C74.1555 55.8976 75.2692 55.3073 76.1434 54.4406C77.0176 53.5738 77.6129 52.4695 77.8541 51.2673C78.0953 50.065 77.9715 48.8189 77.4984 47.6864C77.0253 46.5539 76.2241 45.586 75.1962 44.905C74.1683 44.224 72.9598 43.8605 71.7235 43.8605C70.0663 43.8623 68.4776 44.5159 67.3058 45.6778C66.1339 46.8397 65.4748 48.415 65.4729 50.0581Z" fill="#EEEEEE"/>
</g>
<g clip-path="url(#clip2_591_2)">
<path d="M19.4491 50.0582C19.4491 51.8095 18.9298 53.5215 17.9568 54.9776C16.9838 56.4338 15.6009 57.5687 13.9829 58.2389C12.3649 58.9091 10.5845 59.0845 8.8669 58.7428C7.14925 58.4011 5.57149 57.5578 4.33313 56.3195C3.09478 55.0811 2.25145 53.5033 1.90978 51.7857C1.56812 50.068 1.74348 48.2877 2.41367 46.6697C3.08386 45.0517 4.21879 43.6688 5.67495 42.6958C7.1311 41.7228 8.84307 41.2035 10.5944 41.2035C12.942 41.2062 15.1926 42.1399 16.8527 43.7999C18.5127 45.4599 19.4464 47.7106 19.4491 50.0582Z" fill="#878787"/>
<path d="M16.845 50.0581C16.845 51.2839 16.4784 52.4822 15.7915 53.5014C15.1047 54.5206 14.1285 55.315 12.9863 55.7841C11.8442 56.2531 10.5874 56.3759 9.37489 56.1367C8.16238 55.8976 7.04862 55.3073 6.17445 54.4406C5.30028 53.5738 4.70497 52.4695 4.46379 51.2673C4.2226 50.065 4.34639 48.8189 4.81948 47.6864C5.29258 46.5539 6.09374 45.586 7.12165 44.905C8.14957 44.224 9.35806 43.8605 10.5943 43.8605C12.2515 43.8623 13.8403 44.5159 15.0121 45.6778C16.1839 46.8397 16.8431 48.415 16.845 50.0581Z" fill="#EEEEEE"/>
</g>
</g>
<defs>
<clipPath id="clip0_591_2">
<rect width="82" height="82" fill="white"/>
</clipPath>
<clipPath id="clip1_591_2">
<rect width="21.0827" height="21.0827" fill="white" transform="translate(71.7235 39.5168)"/>
</clipPath>
<clipPath id="clip2_591_2">
<rect width="21.0827" height="21.0827" fill="white" transform="matrix(-1 0 0 1 10.5944 39.5168)"/>
</clipPath>
</defs>
</svg>
