<svg width="200" height="155" viewBox="0 0 200 155" fill="none" xmlns="http://www.w3.org/2000/svg">
<g clip-path="url(#clip0_377_40)">
<path opacity="0.5" fill-rule="evenodd" clip-rule="evenodd" d="M102.5 0V25H105V40H110V65H117.5V92.5H122.5V87.5H127.5V92.5H142.5V82.5H152.5V87.5H157.5V72.5H167.5V87.5H172.5V100.465C159.86 111.3 132.475 120 100 120C67.525 120 40.1375 111.3 27.495 100.46L27.5 87.5H32.5V72.5H42.5V87.5H47.5V82.5H57.5V92.5H72.5V87.5H77.5V92.5H82.5V65H90V40H95V25H97.5V0H102.5Z" fill="white"/>
<path fill-rule="evenodd" clip-rule="evenodd" d="M110 45.26C133.345 46.4775 153.997 51.9125 168.47 59.915C187.88 69.95 200 84.195 200 100C200 130.375 155.227 155 100 155C44.7725 155 0 130.375 0 100C0 84.2 12.115 69.955 31.5125 59.925C45.9875 51.9175 66.6475 46.4775 90 45.26V55.2875C68.025 56.5625 48.64 61.9625 34.4575 69.645C25.3175 75.0225 20 81.315 20 87.5C20 103.403 55.1475 120 100 120C144.852 120 180 103.403 180 87.5C180 81.3175 174.688 75.03 165.555 69.65C151.375 61.9675 131.982 56.565 110 55.29V45.26ZM10.96 93.725L10.8225 94.19C10.2823 96.0796 10.0055 98.0347 10 100C10 122.468 46.97 143.55 95 144.928V129.935C52.0375 128.825 17.1025 113.485 10.96 93.725ZM188.825 94.3925L189.048 93.7225C189.678 95.7925 190.003 97.89 190.003 100C190.003 122.468 153.033 143.55 105.005 144.928V129.935C147.48 128.835 182.113 113.828 188.825 94.3925Z" fill="white"/>
</g>
<defs>
<clipPath id="clip0_377_40">
<rect width="200" height="155" fill="white"/>
</clipPath>
</defs>
</svg>
