<svg width="72" height="72" viewBox="0 0 72 72" fill="none" xmlns="http://www.w3.org/2000/svg">
<g clip-path="url(#clip0_403_91)">
<path d="M36 3.65625C44.6344 3.65625 52.7625 7.03125 58.8656 13.1344C64.9688 19.2375 68.3438 27.3656 68.3438 36C68.3438 44.6344 64.9688 52.7625 58.8656 58.8656C52.7625 64.9688 44.6344 68.3438 36 68.3438C27.3656 68.3438 19.2375 64.9688 13.1344 58.8656C7.03125 52.7625 3.65625 44.6344 3.65625 36C3.65625 27.3656 7.03125 19.2375 13.1344 13.1344C19.2375 7.03125 27.3656 3.65625 36 3.65625ZM36 0.84375C16.5938 0.84375 0.84375 16.5938 0.84375 36C0.84375 55.4062 16.5938 71.1562 36 71.1562C55.4062 71.1562 71.1562 55.4062 71.1562 36C71.1562 16.5938 55.4062 0.84375 36 0.84375Z" fill="url(#paint0_linear_403_91)"/>
<path d="M20.3062 48.825L26.1843 41.9063C29.2218 44.4657 32.0624 45.9282 35.2124 45.9282C38.6155 45.9282 40.6687 44.2407 40.6687 41.4844C40.6687 38.8407 38.4468 37.1813 35.2124 37.1813C32.9343 37.1813 31.0218 37.9688 29.278 39.0375L23.1749 35.6344L24.2437 16.7906H49.078V25.3125H32.3437L32.0343 30.9375C33.7218 30.15 35.4937 29.6157 37.9687 29.6157C44.6624 29.6157 50.7093 33.3282 50.7093 41.5125C50.7093 49.7813 44.3812 54.7313 35.3812 54.7313C28.7718 54.7032 24.1593 52.425 20.3062 48.825Z" fill="url(#paint1_linear_403_91)"/>
</g>
<defs>
<linearGradient id="paint0_linear_403_91" x1="36" y1="0.84375" x2="36" y2="71.1562" gradientUnits="userSpaceOnUse">
<stop stop-color="#0D579B"/>
<stop offset="1" stop-color="#0C9878"/>
</linearGradient>
<linearGradient id="paint1_linear_403_91" x1="35.5077" y1="16.7906" x2="35.5077" y2="54.7313" gradientUnits="userSpaceOnUse">
<stop stop-color="#0D579B"/>
<stop offset="1" stop-color="#0C9878"/>
</linearGradient>
<clipPath id="clip0_403_91">
<rect width="72" height="72" fill="white"/>
</clipPath>
</defs>
</svg>
