<svg width="72" height="72" viewBox="0 0 72 72" fill="none" xmlns="http://www.w3.org/2000/svg">
<g clip-path="url(#clip0_403_109)">
<path d="M36 3.65625C44.6344 3.65625 52.7625 7.03125 58.8656 13.1344C64.9688 19.2375 68.3438 27.3656 68.3438 36C68.3438 44.6344 64.9688 52.7625 58.8656 58.8656C52.7625 64.9688 44.6344 68.3438 36 68.3438C27.3656 68.3438 19.2375 64.9688 13.1344 58.8656C7.03125 52.7625 3.65625 44.6344 3.65625 36C3.65625 27.3656 7.03125 19.2375 13.1344 13.1344C19.2375 7.03125 27.3656 3.65625 36 3.65625ZM36 0.84375C16.5938 0.84375 0.84375 16.5938 0.84375 36C0.84375 55.4062 16.5938 71.1562 36 71.1562C55.4062 71.1562 71.1562 55.4062 71.1562 36C71.1562 16.5938 55.4062 0.84375 36 0.84375Z" fill="url(#paint0_linear_403_109)"/>
<path d="M38.1094 46.7438H20.1094L18.4219 39.4875L37.6875 16.5657H48.0938V39.0657H52.8188V46.7719H48.0938V54H38.1094V46.7438ZM38.1094 39.0938V28.4344L29.2219 39.0938H38.1094Z" fill="url(#paint1_linear_403_109)"/>
</g>
<defs>
<linearGradient id="paint0_linear_403_109" x1="0.84375" y1="36" x2="71.1562" y2="36" gradientUnits="userSpaceOnUse">
<stop stop-color="#0D579B"/>
<stop offset="1" stop-color="#0C9878"/>
</linearGradient>
<linearGradient id="paint1_linear_403_109" x1="18.4219" y1="35.2829" x2="52.8188" y2="35.2829" gradientUnits="userSpaceOnUse">
<stop stop-color="#0D579B"/>
<stop offset="1" stop-color="#0C9878"/>
</linearGradient>
<clipPath id="clip0_403_109">
<rect width="72" height="72" fill="white"/>
</clipPath>
</defs>
</svg>
