<svg width="72" height="72" viewBox="0 0 72 72" fill="none" xmlns="http://www.w3.org/2000/svg">
<g clip-path="url(#clip0_403_72)">
<path d="M36 3.65625C44.6344 3.65625 52.7625 7.03125 58.8656 13.1344C64.9688 19.2375 68.3438 27.3656 68.3438 36C68.3438 44.6344 64.9688 52.7625 58.8656 58.8656C52.7625 64.9688 44.6344 68.3438 36 68.3438C27.3656 68.3438 19.2375 64.9688 13.1344 58.8656C7.03125 52.7625 3.65625 44.6344 3.65625 36C3.65625 27.3656 7.03125 19.2375 13.1344 13.1344C19.2375 7.03125 27.3656 3.65625 36 3.65625ZM36 0.84375C16.5938 0.84375 0.84375 16.5938 0.84375 36C0.84375 55.4062 16.5938 71.1562 36 71.1562C55.4062 71.1562 71.1562 55.4062 71.1562 36C71.1562 16.5938 55.4062 0.84375 36 0.84375Z" fill="url(#paint0_linear_403_72)"/>
<path d="M33.4406 26.1563L27.1687 27.5907L25.2 19.6313L36.0843 16.5657H43.5937V53.9719H33.4687V26.1563H33.4406Z" fill="url(#paint1_linear_403_72)"/>
</g>
<defs>
<linearGradient id="paint0_linear_403_72" x1="36" y1="0.84375" x2="36" y2="71.1562" gradientUnits="userSpaceOnUse">
<stop stop-color="#0D579B"/>
<stop offset="1" stop-color="#0C9878"/>
</linearGradient>
<linearGradient id="paint1_linear_403_72" x1="34.3968" y1="16.5657" x2="34.3968" y2="53.9719" gradientUnits="userSpaceOnUse">
<stop stop-color="#0D579B"/>
<stop offset="1" stop-color="#0C9878"/>
</linearGradient>
<clipPath id="clip0_403_72">
<rect width="72" height="72" fill="white"/>
</clipPath>
</defs>
</svg>
