<svg width="82" height="82" viewBox="0 0 82 82" fill="none" xmlns="http://www.w3.org/2000/svg">
<g clip-path="url(#clip0_462_19)">
<path d="M81.013 28.895L44.726 12.1917C43.5491 11.6496 42.2953 11.376 41 11.376C39.7047 11.376 38.4513 11.6496 37.274 12.1917L0.987043 28.895C0.387258 29.1723 0 29.7765 0 30.4369C0 31.0972 0.387258 31.7015 0.987043 31.9787L37.274 48.682C38.451 49.2242 39.7047 49.499 41 49.499C42.2953 49.499 43.5491 49.2242 44.7264 48.682L73.3642 35.5002V48.7741C72.2278 48.9022 71.3414 49.8696 71.3414 51.0384C71.3414 52.0568 72.0154 52.9385 72.976 53.2194L71.0394 65.9984H79.9563L78.02 53.2194C78.9803 52.9385 79.6542 52.0568 79.6542 51.0384C79.6542 49.8696 78.7679 48.9022 77.6314 48.7741V33.5356L81.0133 31.9787C81.6129 31.7015 82.0003 31.0972 82.0003 30.4369C82.0003 29.7765 81.6128 29.1723 81.013 28.895Z" fill="#222222" fill-opacity="0.5"/>
<path d="M40.9999 55.5471C39.1988 55.5471 37.4536 55.1642 35.8131 54.4093L18.0645 46.2386V62.5166C18.0645 66.0903 28.8631 70.6239 40.9999 70.6239C53.1369 70.6239 63.9358 66.0902 63.9358 62.5166V46.2386L46.1861 54.4093C44.5466 55.1642 42.8017 55.5471 40.9999 55.5471Z" fill="#222222" fill-opacity="0.5"/>
</g>
<defs>
<clipPath id="clip0_462_19">
<rect width="82" height="82" fill="white"/>
</clipPath>
</defs>
</svg>
