<svg xmlns="http://www.w3.org/2000/svg" width="240" height="240" viewBox="0 0 240 240" fill="none">
<g clip-path="url(#clip0_50_6)">
<path d="M182.75 0H55.25C24.184 0 -1 25.184 -1 56.25V183.75C-1 214.816 24.184 240 55.25 240H182.75C213.816 240 239 214.816 239 183.75V56.25C239 25.184 213.816 0 182.75 0Z" fill="url(#paint0_linear_50_6)"/>
<path d="M98 175C94.112 175 94.773 173.532 93.432 169.83L82 132.207L170 80" fill="#C8DAEA"/>
<path d="M98 175C101 175 102.325 173.628 104 172L120 156.442L100.042 144.407" fill="#A9C9DD"/>
<path d="M100.04 144.41L148.4 180.139C153.919 183.184 157.901 181.607 159.276 175.016L178.961 82.2527C180.976 74.1727 175.881 70.5067 170.601 72.9037L55.0113 117.475C47.1213 120.64 47.1683 125.042 53.5733 127.003L83.2363 136.262L151.909 92.9367C155.151 90.9707 158.127 92.0267 155.685 94.1947" fill="url(#paint1_linear_50_6)"/>
</g>
<defs>
<linearGradient id="paint0_linear_50_6" x1="119" y1="0" x2="119" y2="240" gradientUnits="userSpaceOnUse">
<stop stop-color="#2DA5D9"/>
<stop offset="1" stop-color="#1E96C8"/>
</linearGradient>
<linearGradient id="paint1_linear_50_6" x1="135.044" y1="120.009" x2="153.772" y2="162.678" gradientUnits="userSpaceOnUse">
<stop stop-color="#EFF7FC"/>
<stop offset="1" stop-color="white"/>
</linearGradient>
<clipPath id="clip0_50_6">
<rect width="240" height="240" fill="white"/>
</clipPath>
</defs>
</svg>