<svg width="30" height="30" viewBox="0 0 30 30" fill="none" xmlns="http://www.w3.org/2000/svg">
<path fill-rule="evenodd" clip-rule="evenodd" d="M28.8896 5.61799C29.287 3.68078 27.3843 2.07092 25.5396 2.78363L2.92815 11.5199C0.868169 12.3158 0.776382 15.1964 2.7815 16.1218L7.70565 18.3945L10.0481 26.5931C10.1698 27.019 10.5077 27.3488 10.9365 27.4599C11.3652 27.5709 11.8207 27.4469 12.1339 27.1336L15.7423 23.5253L20.7969 27.3163C22.2641 28.4166 24.3774 27.6151 24.7459 25.8185L28.8896 5.61799ZM3.82915 13.8519L26.4406 5.11563L22.2969 25.3163L16.375 20.8748C15.8774 20.5015 15.181 20.551 14.7411 20.9909L13.1956 22.5364L13.66 19.9825L22.7589 10.8837C23.2018 10.4409 23.2485 9.73871 22.8684 9.24104C22.4883 8.74337 21.7986 8.60378 21.2549 8.91448L8.68907 16.0949L3.82915 13.8519ZM10.2212 18.0988L10.9792 20.7518L11.2702 19.1511C11.3157 18.901 11.4364 18.6706 11.6162 18.4909L14.391 15.7161L10.2212 18.0988Z" fill="white"/>
</svg>
