<svg width="72" height="72" viewBox="0 0 72 72" fill="none" xmlns="http://www.w3.org/2000/svg">
<g clip-path="url(#clip0_403_82)">
<path d="M36 3.65625C44.6344 3.65625 52.7625 7.03125 58.8656 13.1344C64.9688 19.2375 68.3438 27.3656 68.3438 36C68.3438 44.6344 64.9688 52.7625 58.8656 58.8656C52.7625 64.9688 44.6344 68.3438 36 68.3438C27.3656 68.3438 19.2375 64.9688 13.1344 58.8656C7.03125 52.7625 3.65625 44.6344 3.65625 36C3.65625 27.3656 7.03125 19.2375 13.1344 13.1344C19.2375 7.03125 27.3656 3.65625 36 3.65625ZM36 0.84375C16.5938 0.84375 0.84375 16.5938 0.84375 36C0.84375 55.4062 16.5938 71.1562 36 71.1562C55.4062 71.1562 71.1562 55.4062 71.1562 36C71.1562 16.5938 55.4062 0.84375 36 0.84375Z" fill="url(#paint0_linear_403_82)"/>
<path d="M20.4751 48.1219L26.9438 41.6531C29.5876 44.3531 32.4001 45.9 35.8032 45.9C38.7282 45.9 40.5845 44.4093 40.5845 42.0187C40.5845 39.6281 38.4188 38.1937 34.5376 38.1937H30.1782L28.6876 32.8218L37.2376 25.1156H23.0345V16.8187H49.8938V24.1875L41.0345 31.7812C46.3501 32.9625 50.6251 35.9156 50.6251 42.3281C50.6251 49.8656 44.5782 54.7031 36.3095 54.7031C29.1376 54.7031 24.0751 52.1156 20.4751 48.1219Z" fill="url(#paint1_linear_403_82)"/>
</g>
<defs>
<linearGradient id="paint0_linear_403_82" x1="36" y1="0.84375" x2="36" y2="71.1562" gradientUnits="userSpaceOnUse">
<stop stop-color="#0D579B"/>
<stop offset="1" stop-color="#0C9878"/>
</linearGradient>
<linearGradient id="paint1_linear_403_82" x1="35.5501" y1="16.8187" x2="35.5501" y2="54.7031" gradientUnits="userSpaceOnUse">
<stop stop-color="#0D579B"/>
<stop offset="1" stop-color="#0C9878"/>
</linearGradient>
<clipPath id="clip0_403_82">
<rect width="72" height="72" fill="white"/>
</clipPath>
</defs>
</svg>
