<svg width="82" height="68" viewBox="0 0 82 68" fill="none" xmlns="http://www.w3.org/2000/svg">
<path opacity="0.5" fill-rule="evenodd" clip-rule="evenodd" d="M42.4152 0.0701904V14.2076H43.8289V22.6901H46.6564V36.8275H50.8976V52.3787H53.7251V49.5512H56.5526V52.3787H65.0351V46.7238H70.69V49.5512H73.5175V41.0688H79.1725V49.5512H82V56.8829C74.8521 63.0101 59.366 67.9299 41.0014 67.9299C22.6369 67.9299 7.14931 63.0101 0 56.8801L0.00282728 49.5512H2.83032V41.0688H8.48529V49.5512H11.3128V46.7238H16.9678V52.3787H25.4502V49.5512H28.2777V52.3787H31.1052V36.8275H35.3464V22.6901H38.1739V14.2076H39.5877V0.0701904H42.4152Z" fill="#222222"/>
</svg>
